<mxfile host="app.diagrams.net" modified="2023-03-08T03:30:39.255Z" agent="5.0 (Windows NT 10.0; Win64; x64) AppleWebKit/537.36 (KHTML, like Gecko) Chrome/110.0.0.0 Safari/537.36 Edg/110.0.1587.63" etag="6fHg_YfeQ27VmFSWXbcl" version="21.0.2" type="github">
  <diagram name="Page-1" id="58cdce13-f638-feb5-8d6f-7d28b1aa9fa0">
    <mxGraphModel dx="1221" dy="783" grid="1" gridSize="10" guides="1" tooltips="1" connect="1" arrows="1" fold="1" page="1" pageScale="1" pageWidth="1100" pageHeight="850" background="none" math="0" shadow="0">
      <root>
        <mxCell id="0" />
        <mxCell id="1" parent="0" />
        <mxCell id="NhnpPlJM-IxaVm-xWD0R-1" value="게시판 서비스" style="shape=umlFrame;whiteSpace=wrap;html=1;rounded=1;shadow=0;comic=0;labelBackgroundColor=none;strokeWidth=1;fontFamily=Verdana;fontSize=12;align=center;width=100;height=25;" vertex="1" parent="1">
          <mxGeometry x="100" y="35" width="860" height="745" as="geometry" />
        </mxCell>
        <mxCell id="NhnpPlJM-IxaVm-xWD0R-7" style="rounded=0;orthogonalLoop=1;jettySize=auto;html=1;entryX=0;entryY=0.5;entryDx=0;entryDy=0;endArrow=none;endFill=0;" edge="1" parent="1" target="NhnpPlJM-IxaVm-xWD0R-3">
          <mxGeometry relative="1" as="geometry">
            <mxPoint x="70" y="320" as="sourcePoint" />
          </mxGeometry>
        </mxCell>
        <mxCell id="NhnpPlJM-IxaVm-xWD0R-9" style="rounded=0;orthogonalLoop=1;jettySize=auto;html=1;startArrow=none;startFill=0;endArrow=none;endFill=0;" edge="1" parent="1" source="NhnpPlJM-IxaVm-xWD0R-2" target="NhnpPlJM-IxaVm-xWD0R-5">
          <mxGeometry relative="1" as="geometry" />
        </mxCell>
        <mxCell id="NhnpPlJM-IxaVm-xWD0R-10" style="rounded=0;orthogonalLoop=1;jettySize=auto;html=1;entryX=0;entryY=0.5;entryDx=0;entryDy=0;endArrow=none;endFill=0;" edge="1" parent="1" target="NhnpPlJM-IxaVm-xWD0R-6">
          <mxGeometry relative="1" as="geometry">
            <mxPoint x="70" y="320" as="sourcePoint" />
          </mxGeometry>
        </mxCell>
        <mxCell id="NhnpPlJM-IxaVm-xWD0R-2" value="이용자" style="shape=umlActor;verticalLabelPosition=bottom;verticalAlign=top;html=1;outlineConnect=0;" vertex="1" parent="1">
          <mxGeometry x="40" y="290" width="30" height="60" as="geometry" />
        </mxCell>
        <mxCell id="NhnpPlJM-IxaVm-xWD0R-3" value="회원 로그인" style="rounded=1;whiteSpace=wrap;html=1;arcSize=40;fontColor=#000000;fillColor=#ffffc0;strokeColor=#ff0000;" vertex="1" parent="1">
          <mxGeometry x="250" y="210" width="130" height="40" as="geometry" />
        </mxCell>
        <mxCell id="NhnpPlJM-IxaVm-xWD0R-5" value="게시판 보기" style="rounded=1;whiteSpace=wrap;html=1;arcSize=40;fontColor=#000000;fillColor=#ffffc0;strokeColor=#ff0000;" vertex="1" parent="1">
          <mxGeometry x="140" y="330" width="120" height="40" as="geometry" />
        </mxCell>
        <mxCell id="NhnpPlJM-IxaVm-xWD0R-11" style="rounded=0;orthogonalLoop=1;jettySize=auto;html=1;entryX=0.61;entryY=1.008;entryDx=0;entryDy=0;entryPerimeter=0;startArrow=none;startFill=0;dashed=1;endArrow=classic;endFill=1;exitX=1;exitY=0.5;exitDx=0;exitDy=0;" edge="1" parent="1" source="NhnpPlJM-IxaVm-xWD0R-6" target="NhnpPlJM-IxaVm-xWD0R-3">
          <mxGeometry relative="1" as="geometry" />
        </mxCell>
        <mxCell id="NhnpPlJM-IxaVm-xWD0R-12" value="&amp;lt;&amp;lt;include&amp;gt;&amp;gt;" style="edgeLabel;html=1;align=center;verticalAlign=middle;resizable=0;points=[];" vertex="1" connectable="0" parent="NhnpPlJM-IxaVm-xWD0R-11">
          <mxGeometry x="0.3511" y="-3" relative="1" as="geometry">
            <mxPoint x="-1" as="offset" />
          </mxGeometry>
        </mxCell>
        <mxCell id="NhnpPlJM-IxaVm-xWD0R-6" value="게시글 보기" style="rounded=1;whiteSpace=wrap;html=1;arcSize=40;fontColor=#000000;fillColor=#ffffc0;strokeColor=#ff0000;" vertex="1" parent="1">
          <mxGeometry x="140" y="460" width="120" height="40" as="geometry" />
        </mxCell>
        <mxCell id="NhnpPlJM-IxaVm-xWD0R-16" style="rounded=0;orthogonalLoop=1;jettySize=auto;html=1;entryX=1;entryY=0.5;entryDx=0;entryDy=0;" edge="1" parent="1" source="NhnpPlJM-IxaVm-xWD0R-14" target="NhnpPlJM-IxaVm-xWD0R-5">
          <mxGeometry relative="1" as="geometry" />
        </mxCell>
        <mxCell id="NhnpPlJM-IxaVm-xWD0R-14" value="일반 게시판" style="rounded=1;whiteSpace=wrap;html=1;arcSize=40;fontColor=#000000;fillColor=#ffffc0;strokeColor=#ff0000;" vertex="1" parent="1">
          <mxGeometry x="380" y="340" width="120" height="40" as="geometry" />
        </mxCell>
        <mxCell id="NhnpPlJM-IxaVm-xWD0R-17" style="rounded=0;orthogonalLoop=1;jettySize=auto;html=1;entryX=1;entryY=0.5;entryDx=0;entryDy=0;" edge="1" parent="1" source="NhnpPlJM-IxaVm-xWD0R-15" target="NhnpPlJM-IxaVm-xWD0R-5">
          <mxGeometry relative="1" as="geometry">
            <mxPoint x="270" y="350" as="targetPoint" />
          </mxGeometry>
        </mxCell>
        <mxCell id="NhnpPlJM-IxaVm-xWD0R-15" value="해시태그 게시판" style="rounded=1;whiteSpace=wrap;html=1;arcSize=40;fontColor=#000000;fillColor=#ffffc0;strokeColor=#ff0000;" vertex="1" parent="1">
          <mxGeometry x="380" y="430" width="120" height="40" as="geometry" />
        </mxCell>
        <mxCell id="NhnpPlJM-IxaVm-xWD0R-21" style="rounded=0;orthogonalLoop=1;jettySize=auto;html=1;entryX=1;entryY=0.5;entryDx=0;entryDy=0;" edge="1" parent="1" source="NhnpPlJM-IxaVm-xWD0R-18" target="NhnpPlJM-IxaVm-xWD0R-3">
          <mxGeometry relative="1" as="geometry" />
        </mxCell>
        <mxCell id="NhnpPlJM-IxaVm-xWD0R-53" style="edgeStyle=orthogonalEdgeStyle;rounded=0;orthogonalLoop=1;jettySize=auto;html=1;entryX=0;entryY=0.5;entryDx=0;entryDy=0;endArrow=none;endFill=0;" edge="1" parent="1" source="NhnpPlJM-IxaVm-xWD0R-18" target="NhnpPlJM-IxaVm-xWD0R-52">
          <mxGeometry relative="1" as="geometry" />
        </mxCell>
        <mxCell id="NhnpPlJM-IxaVm-xWD0R-18" value="카카오 인증" style="rounded=1;whiteSpace=wrap;html=1;arcSize=40;fontColor=#000000;fillColor=#ffffc0;strokeColor=#ff0000;" vertex="1" parent="1">
          <mxGeometry x="510" y="100" width="130" height="40" as="geometry" />
        </mxCell>
        <mxCell id="NhnpPlJM-IxaVm-xWD0R-22" style="rounded=0;orthogonalLoop=1;jettySize=auto;html=1;entryX=1;entryY=0.5;entryDx=0;entryDy=0;" edge="1" parent="1" source="NhnpPlJM-IxaVm-xWD0R-19" target="NhnpPlJM-IxaVm-xWD0R-3">
          <mxGeometry relative="1" as="geometry" />
        </mxCell>
        <mxCell id="NhnpPlJM-IxaVm-xWD0R-54" style="rounded=0;orthogonalLoop=1;jettySize=auto;html=1;entryX=0;entryY=0.5;entryDx=0;entryDy=0;endArrow=none;endFill=0;exitX=1;exitY=0.5;exitDx=0;exitDy=0;" edge="1" parent="1" source="NhnpPlJM-IxaVm-xWD0R-19" target="NhnpPlJM-IxaVm-xWD0R-51">
          <mxGeometry relative="1" as="geometry" />
        </mxCell>
        <mxCell id="NhnpPlJM-IxaVm-xWD0R-19" value="DB 인증" style="rounded=1;whiteSpace=wrap;html=1;arcSize=40;fontColor=#000000;fillColor=#ffffc0;strokeColor=#ff0000;" vertex="1" parent="1">
          <mxGeometry x="510" y="170" width="130" height="40" as="geometry" />
        </mxCell>
        <mxCell id="NhnpPlJM-IxaVm-xWD0R-23" style="rounded=0;orthogonalLoop=1;jettySize=auto;html=1;entryX=1;entryY=0.5;entryDx=0;entryDy=0;dashed=1;" edge="1" parent="1" source="NhnpPlJM-IxaVm-xWD0R-20" target="NhnpPlJM-IxaVm-xWD0R-3">
          <mxGeometry relative="1" as="geometry" />
        </mxCell>
        <mxCell id="NhnpPlJM-IxaVm-xWD0R-26" value="&amp;lt;&amp;lt;extend&amp;gt;&amp;gt;" style="edgeLabel;html=1;align=center;verticalAlign=middle;resizable=0;points=[];" vertex="1" connectable="0" parent="NhnpPlJM-IxaVm-xWD0R-23">
          <mxGeometry x="-0.2678" y="-2" relative="1" as="geometry">
            <mxPoint as="offset" />
          </mxGeometry>
        </mxCell>
        <mxCell id="NhnpPlJM-IxaVm-xWD0R-20" value="로그인 실패" style="rounded=1;whiteSpace=wrap;html=1;arcSize=40;fontColor=#000000;fillColor=#ffffc0;strokeColor=#ff0000;" vertex="1" parent="1">
          <mxGeometry x="510" y="240" width="130" height="40" as="geometry" />
        </mxCell>
        <mxCell id="NhnpPlJM-IxaVm-xWD0R-30" style="rounded=0;orthogonalLoop=1;jettySize=auto;html=1;dashed=1;" edge="1" parent="1" source="NhnpPlJM-IxaVm-xWD0R-27">
          <mxGeometry relative="1" as="geometry">
            <mxPoint x="500" y="360" as="targetPoint" />
          </mxGeometry>
        </mxCell>
        <mxCell id="NhnpPlJM-IxaVm-xWD0R-31" value="&amp;lt;&amp;lt;extend&amp;gt;&amp;gt;" style="edgeLabel;html=1;align=center;verticalAlign=middle;resizable=0;points=[];" vertex="1" connectable="0" parent="NhnpPlJM-IxaVm-xWD0R-30">
          <mxGeometry x="-0.3506" y="-2" relative="1" as="geometry">
            <mxPoint as="offset" />
          </mxGeometry>
        </mxCell>
        <mxCell id="NhnpPlJM-IxaVm-xWD0R-40" style="rounded=0;orthogonalLoop=1;jettySize=auto;html=1;dashed=1;" edge="1" parent="1" source="NhnpPlJM-IxaVm-xWD0R-27">
          <mxGeometry relative="1" as="geometry">
            <mxPoint x="330" y="260" as="targetPoint" />
          </mxGeometry>
        </mxCell>
        <mxCell id="NhnpPlJM-IxaVm-xWD0R-41" value="&amp;lt;&amp;lt;include&amp;gt;&amp;gt;" style="edgeLabel;html=1;align=center;verticalAlign=middle;resizable=0;points=[];" vertex="1" connectable="0" parent="NhnpPlJM-IxaVm-xWD0R-40">
          <mxGeometry x="0.2118" y="-1" relative="1" as="geometry">
            <mxPoint as="offset" />
          </mxGeometry>
        </mxCell>
        <mxCell id="NhnpPlJM-IxaVm-xWD0R-55" style="rounded=0;orthogonalLoop=1;jettySize=auto;html=1;entryX=0;entryY=0.5;entryDx=0;entryDy=0;endArrow=none;endFill=0;" edge="1" parent="1" source="NhnpPlJM-IxaVm-xWD0R-27" target="NhnpPlJM-IxaVm-xWD0R-51">
          <mxGeometry relative="1" as="geometry" />
        </mxCell>
        <mxCell id="NhnpPlJM-IxaVm-xWD0R-27" value="게시글 쓰기" style="rounded=1;whiteSpace=wrap;html=1;arcSize=40;fontColor=#000000;fillColor=#ffffc0;strokeColor=#ff0000;" vertex="1" parent="1">
          <mxGeometry x="650" y="290" width="120" height="40" as="geometry" />
        </mxCell>
        <mxCell id="NhnpPlJM-IxaVm-xWD0R-32" style="rounded=0;orthogonalLoop=1;jettySize=auto;html=1;entryX=1;entryY=0.5;entryDx=0;entryDy=0;dashed=1;" edge="1" parent="1" source="NhnpPlJM-IxaVm-xWD0R-28" target="NhnpPlJM-IxaVm-xWD0R-14">
          <mxGeometry relative="1" as="geometry" />
        </mxCell>
        <mxCell id="NhnpPlJM-IxaVm-xWD0R-33" value="&amp;lt;&amp;lt;extend&amp;gt;&amp;gt;" style="edgeLabel;html=1;align=center;verticalAlign=middle;resizable=0;points=[];" vertex="1" connectable="0" parent="NhnpPlJM-IxaVm-xWD0R-32">
          <mxGeometry x="-0.3929" y="1" relative="1" as="geometry">
            <mxPoint as="offset" />
          </mxGeometry>
        </mxCell>
        <mxCell id="NhnpPlJM-IxaVm-xWD0R-36" style="rounded=0;orthogonalLoop=1;jettySize=auto;html=1;entryX=1;entryY=0.5;entryDx=0;entryDy=0;dashed=1;" edge="1" parent="1" source="NhnpPlJM-IxaVm-xWD0R-28" target="NhnpPlJM-IxaVm-xWD0R-15">
          <mxGeometry relative="1" as="geometry" />
        </mxCell>
        <mxCell id="NhnpPlJM-IxaVm-xWD0R-37" value="&amp;lt;&amp;lt;extend&amp;gt;&amp;gt;" style="edgeLabel;html=1;align=center;verticalAlign=middle;resizable=0;points=[];" vertex="1" connectable="0" parent="NhnpPlJM-IxaVm-xWD0R-36">
          <mxGeometry x="0.5765" y="-1" relative="1" as="geometry">
            <mxPoint as="offset" />
          </mxGeometry>
        </mxCell>
        <mxCell id="NhnpPlJM-IxaVm-xWD0R-56" style="rounded=0;orthogonalLoop=1;jettySize=auto;html=1;endArrow=none;endFill=0;" edge="1" parent="1" source="NhnpPlJM-IxaVm-xWD0R-28" target="NhnpPlJM-IxaVm-xWD0R-51">
          <mxGeometry relative="1" as="geometry" />
        </mxCell>
        <mxCell id="NhnpPlJM-IxaVm-xWD0R-28" value="게시판 정렬" style="rounded=1;whiteSpace=wrap;html=1;arcSize=40;fontColor=#000000;fillColor=#ffffc0;strokeColor=#ff0000;" vertex="1" parent="1">
          <mxGeometry x="650" y="350" width="120" height="40" as="geometry" />
        </mxCell>
        <mxCell id="NhnpPlJM-IxaVm-xWD0R-34" style="rounded=0;orthogonalLoop=1;jettySize=auto;html=1;entryX=1;entryY=0.5;entryDx=0;entryDy=0;dashed=1;" edge="1" parent="1" source="NhnpPlJM-IxaVm-xWD0R-29" target="NhnpPlJM-IxaVm-xWD0R-14">
          <mxGeometry relative="1" as="geometry" />
        </mxCell>
        <mxCell id="NhnpPlJM-IxaVm-xWD0R-35" value="&amp;lt;&amp;lt;extend&amp;gt;&amp;gt;" style="edgeLabel;html=1;align=center;verticalAlign=middle;resizable=0;points=[];" vertex="1" connectable="0" parent="NhnpPlJM-IxaVm-xWD0R-34">
          <mxGeometry x="-0.2604" relative="1" as="geometry">
            <mxPoint as="offset" />
          </mxGeometry>
        </mxCell>
        <mxCell id="NhnpPlJM-IxaVm-xWD0R-38" style="rounded=0;orthogonalLoop=1;jettySize=auto;html=1;entryX=1;entryY=0.5;entryDx=0;entryDy=0;dashed=1;" edge="1" parent="1" source="NhnpPlJM-IxaVm-xWD0R-29" target="NhnpPlJM-IxaVm-xWD0R-15">
          <mxGeometry relative="1" as="geometry" />
        </mxCell>
        <mxCell id="NhnpPlJM-IxaVm-xWD0R-39" value="&amp;lt;&amp;lt;extend&amp;gt;&amp;gt;" style="edgeLabel;html=1;align=center;verticalAlign=middle;resizable=0;points=[];" vertex="1" connectable="0" parent="NhnpPlJM-IxaVm-xWD0R-38">
          <mxGeometry x="-0.4054" y="-3" relative="1" as="geometry">
            <mxPoint as="offset" />
          </mxGeometry>
        </mxCell>
        <mxCell id="NhnpPlJM-IxaVm-xWD0R-57" style="rounded=0;orthogonalLoop=1;jettySize=auto;html=1;entryX=0;entryY=0.5;entryDx=0;entryDy=0;endArrow=none;endFill=0;" edge="1" parent="1" source="NhnpPlJM-IxaVm-xWD0R-29" target="NhnpPlJM-IxaVm-xWD0R-51">
          <mxGeometry relative="1" as="geometry" />
        </mxCell>
        <mxCell id="NhnpPlJM-IxaVm-xWD0R-29" value="게시판 검색" style="rounded=1;whiteSpace=wrap;html=1;arcSize=40;fontColor=#000000;fillColor=#ffffc0;strokeColor=#ff0000;" vertex="1" parent="1">
          <mxGeometry x="650" y="425" width="120" height="40" as="geometry" />
        </mxCell>
        <mxCell id="NhnpPlJM-IxaVm-xWD0R-45" style="rounded=0;orthogonalLoop=1;jettySize=auto;html=1;entryX=1;entryY=0.5;entryDx=0;entryDy=0;dashed=1;" edge="1" parent="1" source="NhnpPlJM-IxaVm-xWD0R-42" target="NhnpPlJM-IxaVm-xWD0R-6">
          <mxGeometry relative="1" as="geometry" />
        </mxCell>
        <mxCell id="NhnpPlJM-IxaVm-xWD0R-46" value="&amp;lt;&amp;lt;extend&amp;gt;&amp;gt;" style="edgeLabel;html=1;align=center;verticalAlign=middle;resizable=0;points=[];" vertex="1" connectable="0" parent="NhnpPlJM-IxaVm-xWD0R-45">
          <mxGeometry x="0.2757" y="1" relative="1" as="geometry">
            <mxPoint as="offset" />
          </mxGeometry>
        </mxCell>
        <mxCell id="NhnpPlJM-IxaVm-xWD0R-58" style="rounded=0;orthogonalLoop=1;jettySize=auto;html=1;endArrow=none;endFill=0;exitX=1;exitY=0.5;exitDx=0;exitDy=0;" edge="1" parent="1" source="NhnpPlJM-IxaVm-xWD0R-42">
          <mxGeometry relative="1" as="geometry">
            <mxPoint x="1010" y="370" as="targetPoint" />
          </mxGeometry>
        </mxCell>
        <mxCell id="NhnpPlJM-IxaVm-xWD0R-42" value="게시글 수정, 삭제" style="rounded=1;whiteSpace=wrap;html=1;arcSize=40;fontColor=#000000;fillColor=#ffffc0;strokeColor=#ff0000;" vertex="1" parent="1">
          <mxGeometry x="650" y="530" width="120" height="40" as="geometry" />
        </mxCell>
        <mxCell id="NhnpPlJM-IxaVm-xWD0R-47" style="rounded=0;orthogonalLoop=1;jettySize=auto;html=1;entryX=1;entryY=0.75;entryDx=0;entryDy=0;dashed=1;" edge="1" parent="1" source="NhnpPlJM-IxaVm-xWD0R-43" target="NhnpPlJM-IxaVm-xWD0R-6">
          <mxGeometry relative="1" as="geometry" />
        </mxCell>
        <mxCell id="NhnpPlJM-IxaVm-xWD0R-48" value="&amp;lt;&amp;lt;extend&amp;gt;&amp;gt;" style="edgeLabel;html=1;align=center;verticalAlign=middle;resizable=0;points=[];" vertex="1" connectable="0" parent="NhnpPlJM-IxaVm-xWD0R-47">
          <mxGeometry x="0.2908" y="1" relative="1" as="geometry">
            <mxPoint as="offset" />
          </mxGeometry>
        </mxCell>
        <mxCell id="NhnpPlJM-IxaVm-xWD0R-59" style="rounded=0;orthogonalLoop=1;jettySize=auto;html=1;entryX=0;entryY=0.5;entryDx=0;entryDy=0;endArrow=none;endFill=0;exitX=1;exitY=0.5;exitDx=0;exitDy=0;" edge="1" parent="1" source="NhnpPlJM-IxaVm-xWD0R-43" target="NhnpPlJM-IxaVm-xWD0R-51">
          <mxGeometry relative="1" as="geometry" />
        </mxCell>
        <mxCell id="NhnpPlJM-IxaVm-xWD0R-43" value="댓글 보기, 쓰기, 삭제" style="rounded=1;whiteSpace=wrap;html=1;arcSize=40;fontColor=#000000;fillColor=#ffffc0;strokeColor=#ff0000;" vertex="1" parent="1">
          <mxGeometry x="650" y="600" width="120" height="40" as="geometry" />
        </mxCell>
        <mxCell id="NhnpPlJM-IxaVm-xWD0R-49" style="rounded=0;orthogonalLoop=1;jettySize=auto;html=1;entryX=1;entryY=0.75;entryDx=0;entryDy=0;dashed=1;" edge="1" parent="1" source="NhnpPlJM-IxaVm-xWD0R-44" target="NhnpPlJM-IxaVm-xWD0R-6">
          <mxGeometry relative="1" as="geometry" />
        </mxCell>
        <mxCell id="NhnpPlJM-IxaVm-xWD0R-50" value="&amp;lt;&amp;lt;extend&amp;gt;&amp;gt;" style="edgeLabel;html=1;align=center;verticalAlign=middle;resizable=0;points=[];" vertex="1" connectable="0" parent="NhnpPlJM-IxaVm-xWD0R-49">
          <mxGeometry x="0.1946" y="-3" relative="1" as="geometry">
            <mxPoint as="offset" />
          </mxGeometry>
        </mxCell>
        <mxCell id="NhnpPlJM-IxaVm-xWD0R-60" style="rounded=0;orthogonalLoop=1;jettySize=auto;html=1;entryX=0;entryY=0.5;entryDx=0;entryDy=0;endArrow=none;endFill=0;exitX=1;exitY=0.5;exitDx=0;exitDy=0;" edge="1" parent="1" source="NhnpPlJM-IxaVm-xWD0R-44" target="NhnpPlJM-IxaVm-xWD0R-51">
          <mxGeometry relative="1" as="geometry" />
        </mxCell>
        <mxCell id="NhnpPlJM-IxaVm-xWD0R-44" value="대댓글 보기, 쓰기, 삭제" style="rounded=1;whiteSpace=wrap;html=1;arcSize=40;fontColor=#000000;fillColor=#ffffc0;strokeColor=#ff0000;" vertex="1" parent="1">
          <mxGeometry x="650" y="670" width="130" height="40" as="geometry" />
        </mxCell>
        <mxCell id="NhnpPlJM-IxaVm-xWD0R-51" value="DB" style="whiteSpace=wrap;html=1;aspect=fixed;" vertex="1" parent="1">
          <mxGeometry x="1010" y="330" width="80" height="80" as="geometry" />
        </mxCell>
        <mxCell id="NhnpPlJM-IxaVm-xWD0R-52" value="카카오&lt;br&gt;인증 서버" style="whiteSpace=wrap;html=1;aspect=fixed;" vertex="1" parent="1">
          <mxGeometry x="1010" y="80" width="80" height="80" as="geometry" />
        </mxCell>
      </root>
    </mxGraphModel>
  </diagram>
</mxfile>
